<svg width="52" height="70" viewBox="0 0 52 70" fill="none" xmlns="http://www.w3.org/2000/svg">
<path d="M14.5954 15.3329L12.8519 9.89809C13.8829 7.44462 15.9836 4.65215 19.0418 1.80477C19.8055 5.94187 19.7303 9.51455 19.0149 12.1443L14.5954 15.3329ZM7.5641 8.3642C8.07924 8.90925 8.56404 9.45256 9.02033 9.99267L11.6844 18.2986L10.3196 22.4527L6.6701 15.9986C6.64501 13.7597 6.92652 11.1805 7.5641 8.3642ZM20.0794 24.833C20.6688 24.8118 21.2755 24.8034 21.8979 24.8103C19.982 28.5771 17.8493 31.0897 15.8274 32.4669C13.8562 33.8096 12.0413 34.0487 10.5943 33.415L12.2647 28.3308L20.0794 24.833ZM15.1771 19.4544L21.991 14.5299C22.8278 14.3185 23.7049 14.1301 24.6204 13.9661C23.5203 16.4827 22.2911 18.6391 21.0136 20.3826L13.8165 23.606L15.1771 19.4544ZM7.08969 32.2849C5.66599 31.8043 4.45705 30.4828 3.74265 28.2659C3.00343 25.9721 2.81836 22.7731 3.48473 18.7589C3.79039 18.979 4.08807 19.2002 4.37819 19.4215L8.76678 27.1782L7.08969 32.2849ZM1.48934 66.2687C1.17997 55.911 3.47206 46.0284 7.04667 36.2408L8.62163 36.8227C5.041 46.6277 2.79728 56.4306 3.18193 66.6798L1.48934 66.2687Z" fill="#AAAA00" stroke="#2C2C2C"/>
<path d="M37.2705 39.7712C37.2331 40.5217 37.1751 41.2495 37.1004 41.9547L32.9546 49.6253L29.0134 51.5177L31.148 44.4081C32.7461 42.8407 34.7996 41.2599 37.2705 39.7712ZM42.8118 54.4538C43.5441 54.9104 44.2873 55.4097 45.039 55.9548C42.4608 56.9036 40.0515 57.508 37.9081 57.7933L30.6007 54.8335L34.5433 52.9403L42.8118 54.4538ZM20.2629 50.7971C21.4054 48.6759 23.5856 46.3273 26.9452 44.0274C26.9989 44.4005 27.0465 44.7677 27.0879 45.1297L24.5286 53.6715L19.6851 55.9929C19.044 54.6336 19.1588 52.8472 20.2629 50.7971ZM34.0535 60.1999C34.4776 60.61 34.903 61.0421 35.3296 61.4973C31.283 62.7241 27.9923 62.9259 25.5985 62.4208C23.2647 61.9284 21.8363 60.7842 21.2931 59.3001L26.1139 56.9894L34.0535 60.1999ZM16.8519 58.7218L17.5249 60.2604C12.3516 62.5383 7.44949 65.1025 2.91202 68.1417L1.81026 66.8577C6.49903 63.6993 11.5461 61.0576 16.8519 58.7218ZM37.1124 49.6721L39.8311 44.646C42.3155 43.6938 45.7841 43.277 49.9518 43.5117C47.4971 46.9255 44.8677 49.3438 42.4755 50.6496L37.1124 49.6721Z" fill="#AAAA00" stroke="#2C2C2C"/>
<path d="M32.3419 19.6774C33.4926 17.7556 35.0825 15.7053 37.099 13.6393C37.2536 14.3764 37.3829 15.096 37.489 15.7981L35.4132 24.2642L32.0737 27.0916L32.3419 19.6774ZM23.4293 28.6029C23.9992 26.2617 25.5151 23.439 28.1835 20.3664C28.3282 20.7127 28.4656 21.0556 28.5965 21.3952L28.2771 30.3105L24.1804 33.7782C23.2178 32.624 22.8784 30.8656 23.4293 28.6029ZM47.8527 27.0154L47.8528 27.0153C48.1332 27.1179 48.4164 27.2256 48.7019 27.3378C46.4481 28.9064 44.271 30.0993 42.2698 30.9163L34.45 29.9027L37.7909 27.072L46.1618 26.4463C46.7172 26.6188 47.2806 26.8061 47.8527 27.0154ZM3.5711 67.4547L2.29168 66.9217C7.20888 54.89 13.925 45.813 22.039 37.2597L23.2507 38.419C15.2486 46.846 8.40134 55.6999 3.5711 67.4547ZM39.4472 23.2603L40.8103 17.7127C42.9729 16.1635 46.2207 14.8843 50.3119 14.0587C48.7992 17.9823 46.8686 20.9864 44.8846 22.8534L39.4472 23.2603ZM26.5726 36.5738L30.6552 33.1175L39.151 34.2252C39.6629 34.5151 40.1818 34.8252 40.7075 35.1568C37.1026 37.3653 33.97 38.3909 31.5265 38.5063C29.1442 38.6189 27.4732 37.8723 26.5726 36.5738Z" fill="#AAAA00" stroke="#2C2C2C"/>
</svg>
