<svg width="286" height="69" viewBox="0 0 286 69" fill="none" xmlns="http://www.w3.org/2000/svg">
<path d="M13.7698 14.5256L12.0262 9.09072C13.0573 6.63725 15.158 3.84478 18.2162 0.9974C18.9799 5.1345 18.9047 8.70718 18.1892 11.3369L13.7698 14.5256ZM6.73848 7.55683C7.25362 8.10187 7.73842 8.64519 8.1947 9.1853L10.8587 17.4912L9.49402 21.6453L5.84447 15.1913C5.81939 12.9523 6.1009 10.3731 6.73848 7.55683ZM19.2538 24.0256C19.8432 24.0044 20.4499 23.996 21.0723 24.003C19.1563 27.7697 17.0237 30.2823 15.0018 31.6595C13.0306 33.0022 11.2157 33.2413 9.76867 32.6076L11.4391 27.5235L19.2538 24.0256ZM14.3515 18.647L21.1654 13.7225C22.0021 13.5112 22.8793 13.3227 23.7948 13.1588C22.6947 15.6753 21.4655 17.8317 20.1879 19.5753L12.9909 22.7987L14.3515 18.647ZM6.26407 31.4775C4.84037 30.997 3.63142 29.6754 2.91702 27.4586C2.1778 25.1647 1.99274 21.9657 2.65911 17.9515C2.96476 18.1716 3.26245 18.3928 3.55257 18.6142L7.94116 26.3709L6.26407 31.4775ZM0.663714 65.4613C0.354351 55.1036 2.64644 45.2211 6.22105 35.4334L7.79601 36.0153C4.21538 45.8203 1.97166 55.6232 2.35631 65.8725L0.663714 65.4613Z" fill="#AAAA00" stroke="#F2F3F4"/>
<path d="M36.4448 38.9639C36.4074 39.7144 36.3494 40.4422 36.2747 41.1474L32.129 48.818L28.1878 50.7104L30.3223 43.6008C31.9204 42.0333 33.974 40.4526 36.4448 38.9639ZM41.9861 53.6465C42.7184 54.103 43.4616 54.6024 44.2133 55.1475C41.6351 56.0963 39.2258 56.7007 37.0824 56.986L29.775 54.0262L33.7176 52.133L41.9861 53.6465ZM19.4373 49.9898C20.5797 47.8686 22.7599 45.52 26.1195 43.2201C26.1732 43.5932 26.2208 43.9604 26.2622 44.3224L23.7029 52.8641L18.8594 55.1856C18.2183 53.8263 18.3331 52.0398 19.4373 49.9898ZM33.2278 59.3926C33.652 59.8027 34.0774 60.2348 34.5039 60.69C30.4573 61.9168 27.1666 62.1185 24.7728 61.6135C22.439 61.1211 21.0106 59.9769 20.4674 58.4928L25.2882 56.1821L33.2278 59.3926ZM16.0262 57.9145L16.6992 59.4531C11.5259 61.731 6.62381 64.2952 2.08634 67.3344L0.984579 66.0504C5.67334 62.892 10.7204 60.2503 16.0262 57.9145ZM36.2867 48.8648L39.0054 43.8387C41.4898 42.8864 44.9584 42.4697 49.1261 42.7043C46.6714 46.1182 44.0421 48.5365 41.6498 49.8423L36.2867 48.8648Z" fill="#AAAA00" stroke="#F2F3F4"/>
<path d="M31.5161 18.8699C32.6668 16.9482 34.2567 14.8979 36.2731 12.8319C36.4277 13.569 36.5571 14.2885 36.6632 14.9906L34.5874 23.4568L31.2479 26.2842L31.5161 18.8699ZM22.6034 27.7955C23.1734 25.4543 24.6893 22.6316 27.3577 19.559C27.5024 19.9052 27.6398 20.2481 27.7706 20.5877L27.4513 29.5031L23.3546 32.9708C22.392 31.8165 22.0526 30.0582 22.6034 27.7955ZM47.0269 26.208L47.0269 26.2078C47.3074 26.3104 47.5906 26.4181 47.8761 26.5303C45.6223 28.0989 43.4452 29.2918 41.444 30.1089L33.6242 29.0952L36.9651 26.2645L45.336 25.6389C45.8914 25.8114 46.4548 25.9987 47.0269 26.208ZM2.74528 66.6473L1.46585 66.1142C6.38306 54.0826 13.0992 45.0055 21.2131 36.4522L22.4249 37.6116C14.4227 46.0385 7.57552 54.8925 2.74528 66.6473ZM38.6214 22.4529L39.9845 16.9053C42.1471 15.3561 45.3948 14.0768 49.486 13.2513C47.9733 17.1749 46.0427 20.179 44.0588 22.0459L38.6214 22.4529ZM25.7468 35.7664L29.8294 32.3101L38.3252 33.4178C38.837 33.7077 39.356 34.0177 39.8817 34.3493C36.2768 36.5578 33.1442 37.5834 30.7007 37.6989C28.3184 37.8115 26.6473 37.0648 25.7468 35.7664Z" fill="#AAAA00" stroke="#F2F3F4"/>
<path d="M83.864 59.2568C82.904 59.2568 82.104 58.9048 81.464 58.2008C80.856 57.4968 80.616 56.1688 80.744 54.2168C80.872 52.2008 81.496 49.6088 82.616 46.4408C83.736 43.2728 85.192 39.5448 86.984 35.2568C87.56 33.8808 88.136 32.3448 88.712 30.6488C89.32 28.9528 89.832 27.2568 90.248 25.5608C90.664 23.8328 90.872 22.2808 90.872 20.9048C90.872 19.9448 90.744 19.1128 90.488 18.4088C90.264 17.6728 89.848 17.1288 89.24 16.7768C88.536 16.3288 87.784 16.0088 86.984 15.8168C86.184 15.6248 85.336 15.5288 84.44 15.5288C82.424 15.5288 80.296 15.9928 78.056 16.9208C75.848 17.8488 73.704 19.1288 71.624 20.7608C69.576 22.3608 67.736 24.1848 66.104 26.2328C64.504 28.2808 63.288 30.4088 62.456 32.6168C61.976 33.9288 61.624 35.1608 61.4 36.3128C61.176 37.4648 61.064 38.5048 61.064 39.4328C61.064 41.1928 61.384 42.6648 62.024 43.8488C62.696 45.0008 63.56 45.8648 64.616 46.4408C65.704 46.9848 66.872 47.2568 68.12 47.2568C69.304 47.2568 70.424 47.0488 71.48 46.6328C72.856 46.1208 74.088 45.2568 75.176 44.0408C76.264 42.8248 77.128 41.4808 77.768 40.0088C78.408 38.5048 78.728 37.1288 78.728 35.8808C78.728 34.7928 78.44 33.8808 77.864 33.1448C77.32 32.4088 76.408 32.0408 75.128 32.0408C74.936 32.0408 74.744 32.0408 74.552 32.0408C74.392 32.0408 74.2 32.0728 73.976 32.1368C73.848 32.1688 73.736 32.1848 73.64 32.1848C73.544 32.1848 73.464 32.1848 73.4 32.1848C73.112 32.1848 72.968 32.1208 72.968 31.9928C72.968 31.8008 73.272 31.5928 73.88 31.3688C74.872 31.0488 75.8 30.8888 76.664 30.8888C78.168 30.8888 79.288 31.3368 80.024 32.2328C80.76 33.0968 81.128 34.2008 81.128 35.5448C81.128 36.8888 80.76 38.3448 80.024 39.9128C79.288 41.4488 78.2 42.9208 76.76 44.3288C75.352 45.7368 73.576 46.8888 71.432 47.7848C70.28 48.2648 69.096 48.5048 67.88 48.5048C66.216 48.5048 64.648 48.0728 63.176 47.2088C61.704 46.3448 60.504 45.1128 59.576 43.5128C58.648 41.9128 58.184 40.0248 58.184 37.8488C58.184 36.7928 58.312 35.6888 58.568 34.5368C58.824 33.3848 59.224 32.1688 59.768 30.8888C60.824 28.4248 62.264 26.1848 64.088 24.1688C65.912 22.1208 67.944 20.3608 70.184 18.8888C72.456 17.3848 74.776 16.2328 77.144 15.4328C79.512 14.6328 81.768 14.2328 83.912 14.2328C85.8 14.2328 87.512 14.5688 89.048 15.2408C90.744 15.9768 91.928 17.0328 92.6 18.4088C93.304 19.7528 93.656 21.2728 93.656 22.9688C93.656 24.8248 93.336 26.8088 92.696 28.9208C92.088 31.0008 91.336 33.0488 90.44 35.0648C89.448 37.3368 88.472 39.7048 87.512 42.1688C86.552 44.6328 85.72 46.9688 85.016 49.1768C84.312 51.3848 83.816 53.2248 83.528 54.6968C83.464 55.0488 83.416 55.3528 83.384 55.6088C83.352 55.8968 83.336 56.1368 83.336 56.3288C83.336 57.4488 83.704 58.0088 84.44 58.0088C84.888 58.0088 85.416 57.8168 86.024 57.4328C87.208 56.7288 88.408 55.6728 89.624 54.2648C90.84 52.8568 92.04 51.2568 93.224 49.4648C94.44 47.6408 95.608 45.7848 96.728 43.8968C97.848 41.9768 98.92 40.1688 99.944 38.4728C100.968 36.7768 101.896 35.3368 102.728 34.1528C103.24 33.4488 103.72 32.9368 104.168 32.6168C104.616 32.2648 105 32.0888 105.32 32.0888C105.992 32.0888 106.328 32.6008 106.328 33.6248C106.328 34.2328 106.184 34.9688 105.896 35.8328C105.48 37.0488 104.92 38.4408 104.216 40.0088C103.512 41.5448 102.856 43.1128 102.248 44.7128C101.64 46.2808 101.24 47.7528 101.048 49.1288C101.016 49.4808 100.984 49.8008 100.952 50.0888C100.952 50.3448 100.952 50.6168 100.952 50.9048C100.952 52.5688 101.288 53.7528 101.96 54.4568C102.632 55.1928 103.512 55.5608 104.6 55.5608C105.848 55.5608 107.256 55.1608 108.824 54.3608C110.424 53.5608 112.024 52.5048 113.624 51.1928C115.224 49.8488 116.664 48.3768 117.944 46.7768C119.256 45.1768 120.248 43.5768 120.92 41.9768C121.656 40.2168 122.216 38.5048 122.6 36.8408C122.984 35.1768 123.176 33.6568 123.176 32.2808C123.176 30.0728 122.696 28.2808 121.736 26.9048C120.776 25.4968 119.272 24.7928 117.224 24.7928C117.064 24.7928 116.888 24.8088 116.696 24.8408C116.504 24.8408 116.296 24.8568 116.072 24.8888C115.304 25.0808 114.744 25.1768 114.392 25.1768C113.976 25.1768 113.768 25.0808 113.768 24.8888C113.768 24.6328 114.088 24.3448 114.728 24.0248C115.368 23.7048 116.04 23.6088 116.744 23.7368C118.28 23.6088 119.72 23.9608 121.064 24.7928C122.44 25.5928 123.544 26.8088 124.376 28.4408C125.208 30.0408 125.624 31.9928 125.624 34.2968C125.624 35.4808 125.496 36.7608 125.24 38.1368C124.984 39.5128 124.552 40.9528 123.944 42.4568C123.144 44.4728 122.024 46.3448 120.584 48.0728C119.144 49.8008 117.528 51.3208 115.736 52.6328C113.976 53.9448 112.168 54.9528 110.312 55.6568C108.488 56.3928 106.776 56.7608 105.176 56.7608C103.352 56.7608 101.816 56.1848 100.568 55.0328C99.352 53.9128 98.744 52.0888 98.744 49.5608C98.744 48.5048 98.84 47.4328 99.032 46.3448C99.224 45.2568 99.448 44.2968 99.704 43.4648C99.16 44.3608 98.44 45.4808 97.544 46.8248C96.648 48.1368 95.624 49.5128 94.472 50.9528C93.352 52.3928 92.184 53.7368 90.968 54.9848C89.752 56.2648 88.536 57.2888 87.32 58.0568C86.104 58.8568 84.952 59.2568 83.864 59.2568ZM130.444 53.4488C129.26 53.4488 128.188 53.0648 127.228 52.2968C126.3 51.5288 125.836 50.3608 125.836 48.7928C125.836 47.4808 126.124 46.0888 126.7 44.6168C127.308 43.1448 128.092 41.7688 129.052 40.4888C130.044 39.1768 131.132 38.1208 132.316 37.3208C133.532 36.4888 134.748 36.0728 135.964 36.0728C136.572 36.0728 137.164 36.2488 137.74 36.6008C138.316 36.9528 138.604 37.5608 138.604 38.4248C138.604 39.2248 138.3 40.1048 137.692 41.0648C137.084 42.0248 136.22 42.9208 135.1 43.7528C134.62 44.1048 134.012 44.4408 133.276 44.7608C132.54 45.0808 131.804 45.3528 131.068 45.5768C130.332 45.7688 129.724 45.8648 129.244 45.8648C129.084 46.2488 128.924 46.7608 128.764 47.4008C128.636 48.0408 128.572 48.6968 128.572 49.3688C128.572 50.1688 128.732 50.8888 129.052 51.5288C129.372 52.1688 129.964 52.4888 130.828 52.4888C131.884 52.4888 132.86 52.1848 133.756 51.5768C134.684 50.9688 135.5 50.2008 136.204 49.2728C136.94 48.3448 137.564 47.4008 138.076 46.4408C138.588 45.4808 138.988 44.6648 139.276 43.9928C139.66 43.9928 139.852 44.1368 139.852 44.4248C139.436 45.3208 138.956 46.2968 138.412 47.3528C137.9 48.4088 137.276 49.4008 136.54 50.3288C135.836 51.2248 134.972 51.9768 133.948 52.5848C132.956 53.1608 131.788 53.4488 130.444 53.4488ZM129.58 45.0008C130.028 45.0008 130.78 44.8408 131.836 44.5208C132.892 44.1688 133.852 43.6248 134.716 42.8888C135.548 42.1528 136.188 41.3528 136.636 40.4888C137.084 39.5928 137.308 38.8408 137.308 38.2328C137.308 37.5288 137.052 37.1768 136.54 37.1768C136.156 37.1768 135.628 37.4328 134.956 37.9448C134.284 38.4568 133.452 39.3208 132.46 40.5368C131.852 41.3048 131.276 42.1368 130.732 43.0328C130.188 43.9288 129.804 44.5848 129.58 45.0008ZM141.526 53.4008C140.342 53.4008 139.462 53.0488 138.886 52.3448C138.342 51.6088 138.07 50.7448 138.07 49.7528C138.07 48.7288 138.214 47.6728 138.502 46.5848C138.79 45.4968 139.046 44.5848 139.27 43.8488C139.782 42.0568 140.422 40.1528 141.19 38.1368C141.99 36.0888 142.854 34.0888 143.782 32.1368C144.742 30.1528 145.686 28.3768 146.614 26.8088C147.35 25.5608 148.134 24.6328 148.966 24.0248C149.83 23.3848 150.582 23.0648 151.222 23.0648C151.734 23.0648 152.134 23.2568 152.422 23.6408C152.742 23.9928 152.902 24.5368 152.902 25.2728C152.902 25.7848 152.806 26.3928 152.614 27.0968C152.454 27.8008 152.166 28.6008 151.75 29.4968C150.63 31.9928 149.286 34.4888 147.718 36.9848C146.182 39.4808 144.23 41.8168 141.862 43.9928C141.478 44.8888 141.158 45.8488 140.902 46.8728C140.646 47.8968 140.518 48.7288 140.518 49.3688C140.518 51.3528 141.19 52.3448 142.534 52.3448C143.558 52.3448 144.694 51.6088 145.942 50.1368C147.19 48.6328 148.374 46.5848 149.494 43.9928C149.622 43.9928 149.75 44.0248 149.878 44.0888C150.006 44.1208 150.07 44.2328 150.07 44.4248C149.718 45.2888 149.27 46.2488 148.726 47.3048C148.214 48.3288 147.606 49.3048 146.902 50.2328C146.23 51.1608 145.446 51.9288 144.55 52.5368C143.654 53.1128 142.646 53.4008 141.526 53.4008ZM142.246 42.4568C143.398 41.2728 144.518 39.9128 145.606 38.3768C146.694 36.8088 147.702 35.1928 148.63 33.5288C149.59 31.8328 150.39 30.2328 151.03 28.7288C151.254 28.2488 151.43 27.7208 151.558 27.1448C151.718 26.5688 151.798 26.0888 151.798 25.7048C151.798 25.2568 151.686 25.0328 151.462 25.0328C151.334 25.0328 151.142 25.1608 150.886 25.4168C150.63 25.6408 150.294 26.0408 149.878 26.6168C149.27 27.4168 148.598 28.5048 147.862 29.8808C147.158 31.2568 146.438 32.7288 145.702 34.2968C144.966 35.8648 144.294 37.3848 143.686 38.8568C143.078 40.2968 142.598 41.4968 142.246 42.4568ZM151.744 53.4008C150.56 53.4008 149.68 53.0488 149.104 52.3448C148.56 51.6088 148.288 50.7448 148.288 49.7528C148.288 48.7288 148.432 47.6728 148.72 46.5848C149.008 45.4968 149.264 44.5848 149.488 43.8488C150 42.0568 150.64 40.1528 151.408 38.1368C152.208 36.0888 153.072 34.0888 154 32.1368C154.96 30.1528 155.904 28.3768 156.832 26.8088C157.568 25.5608 158.352 24.6328 159.184 24.0248C160.048 23.3848 160.8 23.0648 161.44 23.0648C161.952 23.0648 162.352 23.2568 162.64 23.6408C162.96 23.9928 163.12 24.5368 163.12 25.2728C163.12 25.7848 163.024 26.3928 162.832 27.0968C162.672 27.8008 162.384 28.6008 161.968 29.4968C160.848 31.9928 159.504 34.4888 157.936 36.9848C156.4 39.4808 154.448 41.8168 152.08 43.9928C151.696 44.8888 151.376 45.8488 151.12 46.8728C150.864 47.8968 150.736 48.7288 150.736 49.3688C150.736 51.3528 151.408 52.3448 152.752 52.3448C153.776 52.3448 154.912 51.6088 156.16 50.1368C157.408 48.6328 158.592 46.5848 159.712 43.9928C159.84 43.9928 159.968 44.0248 160.096 44.0888C160.224 44.1208 160.288 44.2328 160.288 44.4248C159.936 45.2888 159.488 46.2488 158.944 47.3048C158.432 48.3288 157.824 49.3048 157.12 50.2328C156.448 51.1608 155.664 51.9288 154.768 52.5368C153.872 53.1128 152.864 53.4008 151.744 53.4008ZM152.464 42.4568C153.616 41.2728 154.736 39.9128 155.824 38.3768C156.912 36.8088 157.92 35.1928 158.848 33.5288C159.808 31.8328 160.608 30.2328 161.248 28.7288C161.472 28.2488 161.648 27.7208 161.776 27.1448C161.936 26.5688 162.016 26.0888 162.016 25.7048C162.016 25.2568 161.904 25.0328 161.68 25.0328C161.552 25.0328 161.36 25.1608 161.104 25.4168C160.848 25.6408 160.512 26.0408 160.096 26.6168C159.488 27.4168 158.816 28.5048 158.08 29.8808C157.376 31.2568 156.656 32.7288 155.92 34.2968C155.184 35.8648 154.512 37.3848 153.904 38.8568C153.296 40.2968 152.816 41.4968 152.464 42.4568ZM155.099 53.6408C156.251 51.3048 157.355 49.0008 158.411 46.7288C159.467 44.4248 160.555 42.2328 161.675 40.1528C162.315 39.0008 162.859 38.2008 163.307 37.7528C163.755 37.2728 164.347 37.0328 165.083 37.0328C165.339 37.0328 165.611 37.0808 165.899 37.1768C166.187 37.2408 166.475 37.2728 166.763 37.2728C166.955 37.2728 167.099 37.2568 167.195 37.2248C166.747 37.4808 166.155 38.1208 165.419 39.1448C164.715 40.1368 163.995 41.2888 163.259 42.6008C162.523 43.9128 161.867 45.1448 161.291 46.2968C161.899 45.5608 162.539 44.8248 163.211 44.0888C163.883 43.3528 164.619 42.6488 165.419 41.9768C166.187 41.3048 167.099 40.6168 168.155 39.9128C169.243 39.1768 170.299 38.5688 171.323 38.0888C172.347 37.6088 173.163 37.3688 173.771 37.3688C173.995 37.3688 174.155 37.3848 174.251 37.4168C174.251 37.4168 174.075 37.7368 173.723 38.3768C173.371 38.9848 172.923 39.8008 172.379 40.8248C171.867 41.8168 171.339 42.8888 170.795 44.0408C170.251 45.1608 169.755 46.2488 169.307 47.3048C168.891 48.3288 168.619 49.1928 168.491 49.8968C168.395 50.3128 168.347 50.6968 168.347 51.0488C168.347 51.5608 168.443 51.8968 168.635 52.0568C168.827 52.2168 169.035 52.2968 169.259 52.2968C169.867 52.2968 170.491 52.0248 171.131 51.4808C171.771 50.9368 172.379 50.2488 172.955 49.4168C173.563 48.5528 174.123 47.6408 174.635 46.6808C175.147 45.7208 175.579 44.8248 175.931 43.9928C176.315 43.9928 176.507 44.1368 176.507 44.4248C176.155 45.2888 175.707 46.2488 175.163 47.3048C174.651 48.3288 174.059 49.3048 173.387 50.2328C172.747 51.1608 172.027 51.9288 171.227 52.5368C170.427 53.1448 169.563 53.4488 168.635 53.4488C167.995 53.4488 167.323 53.2248 166.619 52.7768C165.947 52.3288 165.611 51.4968 165.611 50.2808C165.611 49.9288 165.643 49.5608 165.707 49.1768C165.771 48.7608 165.883 48.3128 166.043 47.8328C166.299 47.1928 166.603 46.5048 166.955 45.7688C167.307 45.0328 167.883 44.0248 168.683 42.7448C168.907 42.3928 169.035 42.1208 169.067 41.9288C169.131 41.7368 169.163 41.5768 169.163 41.4488C169.163 41.0648 168.987 40.8728 168.635 40.8728C168.347 40.8728 167.915 41.0328 167.339 41.3528C166.795 41.6728 166.107 42.2328 165.275 43.0328C164.475 43.8008 163.515 44.8888 162.395 46.2968C161.307 47.7048 160.043 49.7848 158.603 52.5368C158.379 52.9528 158.123 53.1768 157.835 53.2088C157.579 53.2408 157.211 53.2728 156.731 53.3048C156.411 53.3368 156.107 53.3528 155.819 53.3528C155.531 53.3848 155.291 53.4808 155.099 53.6408ZM179.382 53.4488C178.198 53.4488 177.126 53.0648 176.166 52.2968C175.238 51.5288 174.774 50.3608 174.774 48.7928C174.774 47.4808 175.062 46.0888 175.638 44.6168C176.246 43.1448 177.03 41.7688 177.99 40.4888C178.982 39.1768 180.07 38.1208 181.254 37.3208C182.47 36.4888 183.686 36.0728 184.902 36.0728C185.51 36.0728 186.102 36.2488 186.678 36.6008C187.254 36.9528 187.542 37.5608 187.542 38.4248C187.542 39.2248 187.238 40.1048 186.63 41.0648C186.022 42.0248 185.158 42.9208 184.038 43.7528C183.558 44.1048 182.95 44.4408 182.214 44.7608C181.478 45.0808 180.742 45.3528 180.006 45.5768C179.27 45.7688 178.662 45.8648 178.182 45.8648C178.022 46.2488 177.862 46.7608 177.702 47.4008C177.574 48.0408 177.51 48.6968 177.51 49.3688C177.51 50.1688 177.67 50.8888 177.99 51.5288C178.31 52.1688 178.902 52.4888 179.766 52.4888C180.822 52.4888 181.798 52.1848 182.694 51.5768C183.622 50.9688 184.438 50.2008 185.142 49.2728C185.878 48.3448 186.502 47.4008 187.014 46.4408C187.526 45.4808 187.926 44.6648 188.214 43.9928C188.598 43.9928 188.79 44.1368 188.79 44.4248C188.374 45.3208 187.894 46.2968 187.35 47.3528C186.838 48.4088 186.214 49.4008 185.478 50.3288C184.774 51.2248 183.91 51.9768 182.886 52.5848C181.894 53.1608 180.726 53.4488 179.382 53.4488ZM178.518 45.0008C178.966 45.0008 179.718 44.8408 180.774 44.5208C181.83 44.1688 182.79 43.6248 183.654 42.8888C184.486 42.1528 185.126 41.3528 185.574 40.4888C186.022 39.5928 186.246 38.8408 186.246 38.2328C186.246 37.5288 185.99 37.1768 185.478 37.1768C185.094 37.1768 184.566 37.4328 183.894 37.9448C183.222 38.4568 182.39 39.3208 181.398 40.5368C180.79 41.3048 180.214 42.1368 179.67 43.0328C179.126 43.9288 178.742 44.5848 178.518 45.0008ZM189.215 53.4488C187.903 53.4488 186.831 53.0488 185.999 52.2488C185.199 51.4168 184.799 50.5528 184.799 49.6568C184.799 48.9208 184.991 48.2488 185.375 47.6408C185.727 47.0008 186.207 46.6808 186.815 46.6808L186.863 46.5848C187.567 45.3048 188.239 44.0088 188.879 42.6968C189.551 41.3528 190.287 39.9288 191.087 38.4248C191.759 37.1768 192.479 36.1528 193.247 35.3528C194.047 34.5528 194.975 34.1528 196.031 34.1528C196.287 34.1528 196.639 34.2168 197.087 34.3448C197.535 34.4408 197.759 34.6648 197.759 35.0168C197.759 35.2728 197.615 35.4008 197.327 35.4008C197.103 35.4008 196.847 35.3368 196.559 35.2088C196.303 35.0808 196.095 35.0168 195.935 35.0168C195.327 35.0168 194.815 35.3688 194.399 36.0728C193.983 36.7768 193.775 37.5288 193.775 38.3288C193.775 39.1928 193.919 39.9768 194.207 40.6808C194.495 41.3528 194.831 42.0088 195.215 42.6488C195.599 43.2888 195.935 43.9448 196.223 44.6168C196.511 45.2568 196.655 45.9608 196.655 46.7288C196.655 48.2648 196.351 49.5128 195.743 50.4728C195.167 51.4008 194.399 52.1048 193.439 52.5848H193.487C195.183 52.5848 196.575 51.8008 197.663 50.2328C198.783 48.6328 199.887 46.5528 200.975 43.9928C201.359 43.9928 201.551 44.1368 201.551 44.4248C200.943 45.8648 200.271 47.2728 199.535 48.6488C198.799 50.0248 197.935 51.1608 196.943 52.0568C195.951 52.9528 194.735 53.4008 193.295 53.4008C192.687 53.4008 192.127 53.3368 191.615 53.2088C190.879 53.3688 190.079 53.4488 189.215 53.4488ZM188.495 48.3608C188.495 49.1288 188.671 49.8648 189.023 50.5688C189.375 51.2728 190.015 51.8008 190.943 52.1528C191.775 51.6728 192.415 50.9368 192.863 49.9448C193.343 48.9208 193.583 47.8648 193.583 46.7768C193.583 45.8808 193.487 44.9688 193.295 44.0408C193.103 43.1128 192.895 42.2008 192.671 41.3048C192.479 40.4088 192.383 39.6088 192.383 38.9048C192.383 38.6808 192.383 38.4888 192.383 38.3288C192.415 38.1368 192.447 37.9608 192.479 37.8008C191.903 38.6648 191.311 39.6728 190.703 40.8248C190.127 41.9768 189.567 43.0808 189.023 44.1368C188.479 45.1928 187.983 46.0568 187.535 46.7288C188.175 46.8248 188.495 47.3688 188.495 48.3608ZM186.911 50.7608C186.911 51.2728 187.087 51.7208 187.439 52.1048C187.791 52.4888 188.319 52.6808 189.023 52.6808C189.343 52.6808 189.647 52.6488 189.935 52.5848C189.263 52.1688 188.719 51.6408 188.303 51.0008C187.919 50.3608 187.727 49.6248 187.727 48.7928C187.439 49.1128 187.231 49.4488 187.103 49.8008C186.975 50.1208 186.911 50.4408 186.911 50.7608ZM202.012 53.4488C200.7 53.4488 199.628 53.0488 198.796 52.2488C197.996 51.4168 197.596 50.5528 197.596 49.6568C197.596 48.9208 197.788 48.2488 198.172 47.6408C198.524 47.0008 199.004 46.6808 199.612 46.6808L199.66 46.5848C200.364 45.3048 201.036 44.0088 201.676 42.6968C202.348 41.3528 203.084 39.9288 203.884 38.4248C204.556 37.1768 205.276 36.1528 206.044 35.3528C206.844 34.5528 207.772 34.1528 208.828 34.1528C209.084 34.1528 209.436 34.2168 209.884 34.3448C210.332 34.4408 210.556 34.6648 210.556 35.0168C210.556 35.2728 210.412 35.4008 210.124 35.4008C209.9 35.4008 209.644 35.3368 209.356 35.2088C209.1 35.0808 208.892 35.0168 208.732 35.0168C208.124 35.0168 207.612 35.3688 207.196 36.0728C206.78 36.7768 206.572 37.5288 206.572 38.3288C206.572 39.1928 206.716 39.9768 207.004 40.6808C207.292 41.3528 207.628 42.0088 208.012 42.6488C208.396 43.2888 208.732 43.9448 209.02 44.6168C209.308 45.2568 209.452 45.9608 209.452 46.7288C209.452 48.2648 209.148 49.5128 208.54 50.4728C207.964 51.4008 207.196 52.1048 206.236 52.5848H206.284C207.98 52.5848 209.372 51.8008 210.46 50.2328C211.58 48.6328 212.684 46.5528 213.772 43.9928C214.156 43.9928 214.348 44.1368 214.348 44.4248C213.74 45.8648 213.068 47.2728 212.332 48.6488C211.596 50.0248 210.732 51.1608 209.74 52.0568C208.748 52.9528 207.532 53.4008 206.092 53.4008C205.484 53.4008 204.924 53.3368 204.412 53.2088C203.676 53.3688 202.876 53.4488 202.012 53.4488ZM201.292 48.3608C201.292 49.1288 201.468 49.8648 201.82 50.5688C202.172 51.2728 202.812 51.8008 203.74 52.1528C204.572 51.6728 205.212 50.9368 205.66 49.9448C206.14 48.9208 206.38 47.8648 206.38 46.7768C206.38 45.8808 206.284 44.9688 206.092 44.0408C205.9 43.1128 205.692 42.2008 205.468 41.3048C205.276 40.4088 205.18 39.6088 205.18 38.9048C205.18 38.6808 205.18 38.4888 205.18 38.3288C205.212 38.1368 205.244 37.9608 205.276 37.8008C204.7 38.6648 204.108 39.6728 203.5 40.8248C202.924 41.9768 202.364 43.0808 201.82 44.1368C201.276 45.1928 200.78 46.0568 200.332 46.7288C200.972 46.8248 201.292 47.3688 201.292 48.3608ZM199.708 50.7608C199.708 51.2728 199.884 51.7208 200.236 52.1048C200.588 52.4888 201.116 52.6808 201.82 52.6808C202.14 52.6808 202.444 52.6488 202.732 52.5848C202.06 52.1688 201.516 51.6408 201.1 51.0008C200.716 50.3608 200.524 49.6248 200.524 48.7928C200.236 49.1128 200.028 49.4488 199.9 49.8008C199.772 50.1208 199.708 50.4408 199.708 50.7608ZM221.332 53.8328C220.596 53.8328 219.828 53.7528 219.028 53.5928C218.228 53.4328 217.524 53.1288 216.916 52.6808V52.3928L217.204 52.1048L217.492 52.0088C217.94 52.2328 218.484 52.4088 219.124 52.5368C219.732 52.6648 220.292 52.7288 220.804 52.7288C222.052 52.7288 223.348 52.3928 224.692 51.7208C226.036 51.0488 227.284 50.1688 228.436 49.0808C229.588 47.9608 230.516 46.7448 231.22 45.4328C231.956 44.1208 232.324 42.8248 232.324 41.5448C232.324 40.5208 231.988 39.7688 231.316 39.2888C230.676 38.8088 229.908 38.5688 229.012 38.5688C228.468 38.5688 227.892 38.6488 227.284 38.8088C226.708 38.9368 226.148 39.0808 225.604 39.2408L225.268 39.0968L225.22 38.6648L225.412 38.3768C226.276 38.0248 227.332 37.5448 228.58 36.9368C229.828 36.3288 231.06 35.6088 232.276 34.7768C233.492 33.9448 234.5 33.0168 235.3 31.9928C236.1 30.9688 236.5 29.8648 236.5 28.6808C236.5 27.5288 235.892 26.9528 234.676 26.9528C233.844 26.9528 232.996 27.1928 232.132 27.6728C231.3 28.1528 230.516 28.7288 229.78 29.4008C229.076 30.0408 228.468 30.6648 227.956 31.2728H227.716L227.38 30.9368V30.6968C228.116 29.8008 228.932 28.9528 229.828 28.1528C230.724 27.3528 231.7 26.6968 232.756 26.1848C233.844 25.6728 234.996 25.4168 236.212 25.4168C237.172 25.4168 238.02 25.6408 238.756 26.0888C239.492 26.5368 239.86 27.2888 239.86 28.3448C239.86 29.5608 239.476 30.6648 238.708 31.6568C237.972 32.6168 237.028 33.4808 235.876 34.2488C234.756 34.9848 233.588 35.6248 232.372 36.1688C231.156 36.7128 230.068 37.1608 229.108 37.5128C230.068 37.5128 231.06 37.6408 232.084 37.8968C233.108 38.1528 233.972 38.6008 234.676 39.2408C235.38 39.8808 235.732 40.7768 235.732 41.9288C235.732 43.4008 235.268 44.8408 234.34 46.2488C233.444 47.6568 232.26 48.9368 230.788 50.0888C229.316 51.2408 227.748 52.1528 226.084 52.8248C224.42 53.4968 222.836 53.8328 221.332 53.8328ZM243.494 53.8328C241.894 53.8328 240.614 53.3848 239.654 52.4888C238.694 51.5608 238.214 50.2648 238.214 48.6008C238.214 46.8408 238.63 45.0488 239.462 43.2248C240.326 41.4008 241.446 39.5928 242.822 37.8008C244.198 36.0088 245.718 34.2968 247.382 32.6648C249.046 31.0328 250.694 29.5608 252.326 28.2488C253.99 26.9048 255.494 25.7688 256.838 24.8408C256.998 24.7128 257.142 24.7608 257.27 24.9848C257.43 25.2088 257.462 25.3688 257.366 25.4648C256.822 25.9768 256.23 26.5208 255.59 27.0968C254.982 27.6408 254.406 28.1528 253.862 28.6328C252.774 29.6248 251.686 30.7288 250.598 31.9448C249.51 33.1288 248.534 34.2808 247.67 35.4008C246.998 36.2968 246.278 37.3208 245.51 38.4728C244.742 39.6248 244.022 40.8568 243.35 42.1688C242.71 43.4488 242.166 44.7448 241.718 46.0568C241.302 47.3368 241.094 48.5528 241.094 49.7048C241.094 50.5048 241.318 51.2088 241.766 51.8168C242.214 52.3928 242.87 52.6808 243.734 52.6808C244.886 52.6808 246.006 52.2488 247.094 51.3848C248.182 50.5208 249.142 49.4328 249.974 48.1208C250.838 46.7768 251.526 45.4168 252.038 44.0408C252.55 42.6648 252.806 41.4648 252.806 40.4408C252.806 39.8968 252.694 39.4488 252.47 39.0968C252.246 38.7128 251.83 38.5208 251.222 38.5208C250.422 38.5208 249.654 38.7928 248.918 39.3368C248.182 39.8808 247.494 40.5688 246.854 41.4008C246.246 42.2008 245.718 43.0328 245.27 43.8968C244.822 44.7608 244.47 45.5128 244.214 46.1528C244.182 46.3448 244.118 46.4408 244.022 46.4408C243.926 46.4728 243.798 46.4888 243.638 46.4888C243.414 46.4248 243.35 46.3128 243.446 46.1528C243.67 45.2248 244.054 44.2328 244.598 43.1768C245.142 42.1208 245.814 41.1288 246.614 40.2008C247.414 39.2728 248.294 38.5208 249.254 37.9448C250.246 37.3368 251.286 37.0328 252.374 37.0328C253.494 37.0328 254.358 37.3848 254.966 38.0888C255.574 38.7928 255.878 39.6728 255.878 40.7288C255.878 42.1048 255.494 43.5608 254.726 45.0968C253.99 46.6008 253.014 48.0248 251.798 49.3688C250.582 50.6808 249.238 51.7528 247.766 52.5848C246.326 53.4168 244.902 53.8328 243.494 53.8328ZM263.488 53.8328C262.304 53.8328 261.312 53.5448 260.512 52.9688C259.744 52.3608 259.168 51.5768 258.784 50.6168C258.4 49.6568 258.208 48.6328 258.208 47.5448C258.208 46.3288 258.448 44.9368 258.928 43.3688C259.408 41.8008 260.064 40.1848 260.896 38.5208C261.76 36.8568 262.752 35.2408 263.872 33.6728C264.992 32.1048 266.192 30.6968 267.472 29.4488C268.784 28.1688 270.128 27.1608 271.504 26.4248C272.88 25.6888 274.24 25.3208 275.584 25.3208C277.28 25.3208 278.448 25.8488 279.088 26.9048C279.76 27.9288 280.096 29.1928 280.096 30.6968C280.096 31.9768 279.888 33.4328 279.472 35.0648C279.056 36.6648 278.464 38.3448 277.696 40.1048C276.96 41.8328 276.08 43.5128 275.056 45.1448C274.032 46.7768 272.896 48.2488 271.648 49.5608C270.432 50.8728 269.136 51.9128 267.76 52.6808C266.384 53.4488 264.96 53.8328 263.488 53.8328ZM264.064 52.8728C265.152 52.8728 266.256 52.4568 267.376 51.6248C268.496 50.7608 269.584 49.6248 270.64 48.2168C271.696 46.7768 272.672 45.2088 273.568 43.5128C274.496 41.7848 275.312 40.0568 276.016 38.3288C276.72 36.5688 277.264 34.9528 277.648 33.4808C278.032 31.9768 278.224 30.7448 278.224 29.7848C278.224 28.8568 278.048 28.0408 277.696 27.3368C277.344 26.6008 276.656 26.2328 275.632 26.2328C274.576 26.2328 273.488 26.6648 272.368 27.5288C271.248 28.3928 270.144 29.5448 269.056 30.9848C268 32.3928 266.992 33.9608 266.032 35.6888C265.072 37.4168 264.224 39.1448 263.488 40.8728C262.752 42.6008 262.176 44.2008 261.76 45.6728C261.344 47.1128 261.136 48.2808 261.136 49.1768C261.136 50.1688 261.344 51.0328 261.76 51.7688C262.176 52.5048 262.944 52.8728 264.064 52.8728Z" fill="#F2F3F4"/>
</svg>
