<svg width="100" height="100" viewBox="0 0 100 100" fill="none" xmlns="http://www.w3.org/2000/svg">
<rect width="100" height="100" rx="50" fill="#F2F3F4"/>
<path d="M39.0262 19.8339C40.0572 17.3804 42.1579 14.5879 45.2162 11.7406C45.9799 15.8777 45.9046 19.4503 45.1892 22.0801L40.7697 25.2687L39.0262 19.8339ZM33.7384 18.3C34.2536 18.845 34.7384 19.3884 35.1946 19.9285L37.8587 28.2344L36.494 32.3885L32.8444 25.9344C32.8193 23.6955 33.1008 21.1163 33.7384 18.3ZM46.2537 34.7688C46.8431 34.7476 47.4498 34.7392 48.0722 34.7461C46.1563 38.5129 44.0236 41.0255 42.0017 42.4027C40.0305 43.7453 38.2156 43.9845 36.7686 43.3508L38.439 38.2666L46.2537 34.7688ZM41.3514 29.3902L48.1653 24.4657C49.0021 24.2543 49.8792 24.0659 50.7947 23.9019C49.6946 26.4185 48.4654 28.5749 47.1879 30.3184L39.9908 33.5418L41.3514 29.3902ZM33.264 42.2207C31.8403 41.7401 30.6314 40.4186 29.917 38.2017C29.1777 35.9079 28.9927 32.7089 29.659 28.6947C29.9647 28.9148 30.2624 29.136 30.5525 29.3573L34.9411 37.114L33.264 42.2207ZM27.6637 76.2045C27.3543 65.8468 29.6464 55.9642 33.221 46.1766L34.7959 46.7585C31.2153 56.5635 28.9716 66.3664 29.3562 76.6156L27.6637 76.2045Z" fill="#AAAA00" stroke="#2C2C2C"/>
<path d="M63.4448 49.707C63.4074 50.4575 63.3494 51.1853 63.2747 51.8905L59.129 59.5611L55.1878 61.4535L57.3223 54.3439C58.9204 52.7764 60.974 51.1957 63.4448 49.707ZM68.9861 64.3896C69.7184 64.8461 70.4616 65.3455 71.2133 65.8906C68.6351 66.8394 66.2258 67.4438 64.0824 67.7291L56.775 64.7693L60.7176 62.8761L68.9861 64.3896ZM46.4373 60.7329C47.5797 58.6117 49.7599 56.2631 53.1195 53.9632C53.1732 54.3363 53.2208 54.7035 53.2622 55.0655L50.7029 63.6073L45.8594 65.9287C45.2183 64.5694 45.3331 62.7829 46.4373 60.7329ZM60.2278 70.1357C60.652 70.5458 61.0774 70.9779 61.5039 71.4331C57.4573 72.6599 54.1666 72.8616 51.7728 72.3566C49.439 71.8642 48.0106 70.72 47.4674 69.2359L52.2882 66.9252L60.2278 70.1357ZM43.0262 68.6576L43.6992 70.1962C38.5259 72.4741 33.6238 75.0383 29.0863 78.0775L27.9846 76.7935C32.6733 73.6351 37.7204 70.9934 43.0262 68.6576ZM63.2867 59.6079L66.0054 54.5818C68.4898 53.6295 71.9584 53.2128 76.1261 53.4474C73.6714 56.8613 71.0421 59.2796 68.6498 60.5854L63.2867 59.6079Z" fill="#AAAA00" stroke="#2C2C2C"/>
<path d="M58.248 37.0274L58.5162 29.6131C59.6669 27.6914 61.2568 25.6411 63.2733 23.5751C63.4279 24.3122 63.5572 25.0318 63.6633 25.7339L61.5875 34.2L58.248 37.0274ZM66.9846 27.6485C69.1472 26.0993 72.395 24.82 76.4862 23.9945C74.9735 27.9181 73.0429 30.9222 71.0589 32.7892L65.6215 33.1961L66.9846 27.6485ZM52.7469 46.5096L56.8295 43.0533L65.3253 44.161C65.8371 44.4509 66.3561 44.761 66.8818 45.0926C63.2769 47.3011 60.1443 48.3267 57.7008 48.4421C55.3185 48.5547 53.6475 47.8081 52.7469 46.5096ZM49.6036 38.5387C50.1735 36.1975 51.6894 33.3748 54.3578 30.3022C54.5025 30.6484 54.6399 30.9913 54.7708 31.331L54.4514 40.2463L50.3547 43.714C49.3921 42.5598 49.0527 40.8014 49.6036 38.5387ZM74.027 36.9512L74.0271 36.9511C74.3075 37.0537 74.5907 37.1614 74.8762 37.2735C72.6224 38.8422 70.4453 40.035 68.4441 40.8521L60.6243 39.8385L63.9652 37.0078L72.3361 36.3821C72.8915 36.5546 73.4549 36.7419 74.027 36.9512ZM29.7454 77.3905L28.466 76.8574C33.3832 64.8258 40.0993 55.7488 48.2133 47.1955L49.425 48.3548C41.4229 56.7818 34.5756 65.6357 29.7454 77.3905Z" fill="#AAAA00" stroke="#2C2C2C"/>
</svg>
